<svg width="41" height="40" viewBox="0 0 41 40" fill="none" xmlns="http://www.w3.org/2000/svg">
<g clip-path="url(#clip0_491_27348)">
<path fill-rule="evenodd" clip-rule="evenodd" d="M20.6667 8.75C20.9982 8.75 21.3162 8.8817 21.5506 9.11612C21.785 9.35054 21.9167 9.66848 21.9167 10V20C21.9167 20.3315 21.785 20.6495 21.5506 20.8839C21.3162 21.1183 20.9982 21.25 20.6667 21.25H10.6667C10.3352 21.25 10.0172 21.1183 9.7828 20.8839C9.54838 20.6495 9.41669 20.3315 9.41669 20C9.41669 19.6685 9.54838 19.3505 9.7828 19.1161C10.0172 18.8817 10.3352 18.75 10.6667 18.75H19.4167V10C19.4167 9.66848 19.5484 9.35054 19.7828 9.11612C20.0172 8.8817 20.3352 8.75 20.6667 8.75Z" fill="white"/>
<path fill-rule="evenodd" clip-rule="evenodd" d="M19.4167 20C19.4167 19.6685 19.5484 19.3505 19.7828 19.1161C20.0172 18.8817 20.3352 18.75 20.6667 18.75H30.6667C30.9982 18.75 31.3162 18.8817 31.5506 19.1161C31.785 19.3505 31.9167 19.6685 31.9167 20C31.9167 20.3315 31.785 20.6495 31.5506 20.8839C31.3162 21.1183 30.9982 21.25 30.6667 21.25H21.9167V30C21.9167 30.3315 21.785 30.6495 21.5506 30.8839C21.3162 31.1183 20.9982 31.25 20.6667 31.25C20.3352 31.25 20.0172 31.1183 19.7828 30.8839C19.5484 30.6495 19.4167 30.3315 19.4167 30V20Z" fill="white"/>
<path fill-rule="evenodd" clip-rule="evenodd" d="M35.6667 2.5H5.66669C5.00365 2.5 4.36776 2.76339 3.89892 3.23223C3.43008 3.70107 3.16669 4.33696 3.16669 5V35C3.16669 35.663 3.43008 36.2989 3.89892 36.7678C4.36776 37.2366 5.00365 37.5 5.66669 37.5H35.6667C36.3297 37.5 36.9656 37.2366 37.4345 36.7678C37.9033 36.2989 38.1667 35.663 38.1667 35V5C38.1667 4.33696 37.9033 3.70107 37.4345 3.23223C36.9656 2.76339 36.3297 2.5 35.6667 2.5ZM5.66669 0C4.3406 0 3.06884 0.526784 2.13115 1.46447C1.19347 2.40215 0.666687 3.67392 0.666687 5L0.666687 35C0.666687 36.3261 1.19347 37.5979 2.13115 38.5355C3.06884 39.4732 4.3406 40 5.66669 40H35.6667C36.9928 40 38.2645 39.4732 39.2022 38.5355C40.1399 37.5979 40.6667 36.3261 40.6667 35V5C40.6667 3.67392 40.1399 2.40215 39.2022 1.46447C38.2645 0.526784 36.9928 0 35.6667 0L5.66669 0Z" fill="white"/>
</g>
<defs>
<clipPath id="clip0_491_27348">
<rect width="40" height="40" fill="white" transform="translate(0.666687)"/>
</clipPath>
</defs>
</svg>
