<svg width="24" height="24" viewBox="0 0 24 24" fill="none" xmlns="http://www.w3.org/2000/svg">
<path fill-rule="evenodd" clip-rule="evenodd" d="M12 16.5C13.1935 16.5 14.3381 16.0259 15.182 15.182C16.0259 14.3381 16.5 13.1935 16.5 12C16.5 10.8065 16.0259 9.66193 15.182 8.81802C14.3381 7.97411 13.1935 7.5 12 7.5C10.8065 7.5 9.66193 7.97411 8.81802 8.81802C7.97411 9.66193 7.5 10.8065 7.5 12C7.5 13.1935 7.97411 14.3381 8.81802 15.182C9.66193 16.0259 10.8065 16.5 12 16.5ZM12 18C13.5913 18 15.1174 17.3679 16.2426 16.2426C17.3679 15.1174 18 13.5913 18 12C18 10.4087 17.3679 8.88258 16.2426 7.75736C15.1174 6.63214 13.5913 6 12 6C10.4087 6 8.88258 6.63214 7.75736 7.75736C6.63214 8.88258 6 10.4087 6 12C6 13.5913 6.63214 15.1174 7.75736 16.2426C8.88258 17.3679 10.4087 18 12 18Z" fill="black"/>
<path d="M12 4.5C12.4142 4.5 12.75 4.16421 12.75 3.75C12.75 3.33579 12.4142 3 12 3C11.5858 3 11.25 3.33579 11.25 3.75C11.25 4.16421 11.5858 4.5 12 4.5Z" fill="black"/>
<path d="M12 21C12.4142 21 12.75 20.6642 12.75 20.25C12.75 19.8358 12.4142 19.5 12 19.5C11.5858 19.5 11.25 19.8358 11.25 20.25C11.25 20.6642 11.5858 21 12 21Z" fill="black"/>
<path d="M19.5 12C19.5 12.4142 19.8358 12.75 20.25 12.75C20.6642 12.75 21 12.4142 21 12C21 11.5858 20.6642 11.25 20.25 11.25C19.8358 11.25 19.5 11.5858 19.5 12Z" fill="black"/>
<path d="M3 12C3 12.4142 3.33579 12.75 3.75 12.75C4.16421 12.75 4.5 12.4142 4.5 12C4.5 11.5858 4.16421 11.25 3.75 11.25C3.33579 11.25 3 11.5858 3 12Z" fill="black"/>
<path d="M17.3026 6.69542C17.5954 6.98831 18.0703 6.98831 18.3632 6.69542C18.6561 6.40252 18.6561 5.92765 18.3632 5.63476C18.0703 5.34186 17.5954 5.34186 17.3026 5.63476C17.0097 5.92765 17.0097 6.40252 17.3026 6.69542Z" fill="black"/>
<path d="M5.63678 18.3653C5.92968 18.6582 6.40455 18.6582 6.69744 18.3653C6.99034 18.0724 6.99034 17.5975 6.69744 17.3046C6.40455 17.0117 5.92968 17.0117 5.63678 17.3046C5.34389 17.5975 5.34389 18.0724 5.63678 18.3653Z" fill="black"/>
<path d="M17.3057 17.3021C17.0128 17.595 17.0128 18.0699 17.3057 18.3628C17.5986 18.6557 18.0735 18.6557 18.3664 18.3628C18.6593 18.0699 18.6593 17.595 18.3664 17.3021C18.0735 17.0092 17.5986 17.0092 17.3057 17.3021Z" fill="black"/>
<path d="M5.63252 5.63465C5.33963 5.92754 5.33963 6.40242 5.63252 6.69531C5.92541 6.9882 6.40029 6.9882 6.69318 6.69531C6.98607 6.40242 6.98607 5.92754 6.69318 5.63465C6.40029 5.34176 5.92541 5.34176 5.63252 5.63465Z" fill="black"/>
</svg>
